<?xml version="1.0" encoding="UTF-8"?>
<svg version="1.1" xmlns="http://www.w3.org/2000/svg" width="440" height="427">
<path d="M0 0 C145.2 0 290.4 0 440 0 C440 140.91 440 281.82 440 427 C294.8 427 149.6 427 0 427 C0 286.09 0 145.18 0 0 Z " fill="#FDFEFE" transform="translate(0,0)"/>
<path d="M0 0 C14.7963382 -0.07050862 29.59266324 -0.12319093 44.38913441 -0.15543652 C51.26151504 -0.17081577 58.13379048 -0.19173094 65.00610352 -0.22631836 C71.65213953 -0.25975062 78.29809591 -0.27690961 84.94421959 -0.28463173 C87.46563105 -0.29012698 89.98703733 -0.30085609 92.50840187 -0.31719017 C129.18523182 -0.54510053 159.97068676 6.78291988 187 33 C201.31201367 47.25929907 210.49927903 66.45307317 215 86 C215.39276123 87.7022876 215.39276123 87.7022876 215.79345703 89.43896484 C217.89144126 99.14274191 218.46916434 108.54112908 218.39111328 118.45361328 C218.37505464 120.8667896 218.39105499 123.2782806 218.41015625 125.69140625 C218.44224627 149.32090446 213.42950425 171.75294681 201 192 C200.39285156 193.00546875 199.78570312 194.0109375 199.16015625 195.046875 C197 197 197 197 193.80078125 196.9921875 C189.52094963 195.87494471 185.36117823 194.58468089 181.1875 193.125 C179.60064571 192.58220564 178.01340788 192.04053118 176.42578125 191.5 C175.28810303 191.11134766 175.28810303 191.11134766 174.12744141 190.71484375 C170.11775813 189.367546 166.06595635 188.16462066 162 187 C164.51537825 194.73169544 167.07322674 202.3923743 170.15234375 209.921875 C172.01465376 214.48753824 173.09900853 218.07432588 173 223 C146.82272828 238.74726502 122.29170761 243.50300041 91.83740234 243.97485352 C88.94307751 244.02402597 86.05454657 244.11475459 83.16259766 244.24145508 C57.82538919 245.32474868 57.82538919 245.32474868 51.51757812 239.79418945 C48.80311656 236.74996673 46.79314084 233.49310256 44.97119141 229.85540771 C43.47755027 227.00188856 41.49319175 224.5828204 39.5 222.0625 C38.79254639 221.06984131 38.08509277 220.07718262 37.35620117 219.05444336 C35.60484707 216.78408887 34.02707598 215.01758873 31.98168945 213.07250977 C21.91665666 202.83429567 21.43466119 191.64297694 21.48182106 178.01685619 C21.51421667 175.05138509 21.58385459 172.08715787 21.65142822 169.12231445 C21.69952535 166.12580641 21.6691827 163.1320994 21.64020157 160.13550949 C21.42322101 131.98820525 21.42322101 131.98820525 32 120 C34.72052128 114.99831605 36.3208404 109.42648412 38 104 C38.3403125 102.94039063 38.680625 101.88078125 39.03125 100.7890625 C43.52569711 83.93488583 42.66061065 64.42687013 37 48 C36.62617188 46.8553125 36.25234375 45.710625 35.8671875 44.53125 C29.8293915 27.4174971 17.85427312 11.66995302 2.171875 2.3125 C1.45515625 1.879375 0.7384375 1.44625 0 1 C0 0.67 0 0.34 0 0 Z " fill="#464646" transform="translate(179,74)"/>
<path d="M0 0 C132.28522727 0 132.28522727 0 155.375 21.9375 C164.79488106 31.97215225 170.67599464 43.70397856 174 57 C174.20625 57.804375 174.4125 58.60875 174.625 59.4375 C179.38697304 81.13093276 175.06783456 104.61883442 163.25 123.3125 C152.85744378 137.94851963 139.19141914 147.18084208 122 152 C121.01 152 120.02 152 119 152 C120.37425838 153.79223558 121.7494822 155.58373084 123.125 157.375 C123.56875977 157.9529834 124.01251953 158.5309668 124.46972656 159.12646484 C127.06158126 162.49693892 129.66627669 165.85665313 132.2890625 169.203125 C138.865762 177.60052986 145.31092342 186.07321446 151.60839844 194.68212891 C156.00152905 200.67664222 160.48228435 206.59894439 165 212.5 C170.38743038 219.54383872 175.72878484 226.61867496 181 233.75 C181.90878906 234.97493164 181.90878906 234.97493164 182.8359375 236.22460938 C183.38507813 236.97033203 183.93421875 237.71605469 184.5 238.484375 C184.9846875 239.14147461 185.469375 239.79857422 185.96875 240.47558594 C187 242 187 242 187 243 C180.28072044 243.46084813 173.56555859 243.77325954 166.83398438 243.98876953 C164.55151289 244.07866359 162.27006005 244.20105431 159.99121094 244.35791016 C141.64960878 245.58764948 141.64960878 245.58764948 135.64074707 241.32723999 C131.39368426 237.12507174 128.25580302 232.30010547 125.26593018 227.15344238 C123.72183141 224.52681432 121.94033218 222.15037779 120.0625 219.75390625 C119.03918221 218.35858952 118.01826949 216.96150511 117 215.5625 C115.83073356 213.9674447 114.66146259 212.37239271 113.4921875 210.77734375 C112.32801982 209.18497273 111.16395674 207.59252522 110 206 C107.71134622 202.87278035 105.41978349 199.74772449 103.125 196.625 C102.55773193 195.8530127 101.99046387 195.08102539 101.40600586 194.28564453 C96.2196412 187.25203182 90.92462945 180.30285222 85.59228516 173.37939453 C84.96499512 172.56196777 84.33770508 171.74454102 83.69140625 170.90234375 C83.14685791 170.19585693 82.60230957 169.48937012 82.04125977 168.76147461 C78.94239756 164.56924516 75.98958932 160.27084189 73 156 C62.11 155.67 51.22 155.34 40 155 C40 184.04 40 213.08 40 243 C26.8 243 13.6 243 0 243 C0 162.81 0 82.62 0 0 Z " fill="#0490DB" transform="translate(34,74)"/>
<path d="M0 0 C66.42857143 0 66.42857143 0 85 13 C85.76828125 13.52335937 86.5365625 14.04671875 87.328125 14.5859375 C103.09377369 26.0079891 112.01892696 44.61381518 115.3125 63.4375 C118.38127273 89.77531645 115.88318077 117.5149301 99 139 C84.53800313 155.5687521 67.54214235 162.60642863 46 165 C30.82 165 15.64 165 0 165 C0 110.55 0 56.1 0 0 Z " fill="#FBFCFC" transform="translate(242,113)"/>
<path d="M0 0 C9.85875 -0.04125 19.7175 -0.0825 29.875 -0.125 C34.5153833 -0.15231201 34.5153833 -0.15231201 39.24951172 -0.18017578 C41.72623522 -0.18602195 44.20296065 -0.19111722 46.6796875 -0.1953125 C47.94562744 -0.20554443 49.21156738 -0.21577637 50.51586914 -0.22631836 C64.51749352 -0.22905359 77.48416121 2.03641532 88 12 C94.27445144 19.70861177 96.54820292 28.66148912 96.375 38.4375 C96.36484863 39.26934814 96.35469727 40.10119629 96.34423828 40.95825195 C96.08866573 51.0811041 93.89252385 58.42149037 87 66 C86.49726563 66.556875 85.99453125 67.11375 85.4765625 67.6875 C78.07859859 74.90502577 66.67867275 77.13362459 56.64916992 77.11352539 C55.3707019 77.11340454 54.09223389 77.11328369 52.77502441 77.11315918 C51.42683869 77.10812467 50.07865345 77.10295815 48.73046875 77.09765625 C46.88032166 77.09614563 46.88032166 77.09614563 44.99279785 77.09460449 C40.39102243 77.08937761 35.78926027 77.07541634 31.1875 77.0625 C20.895625 77.041875 10.60375 77.02125 0 77 C0 51.59 0 26.18 0 0 Z " fill="#FDFEFE" transform="translate(74,113)"/>
<path d="M0 0 C4.93840385 0.9456518 6.99715925 4.69704202 9.9375 8.5625 C10.63230469 9.449375 11.32710937 10.33625 12.04296875 11.25 C14.17137097 13.98804507 16.27608513 16.74194013 18.37255859 19.50439453 C20.12422819 21.80807233 21.88407409 24.10537484 23.64453125 26.40234375 C30.73115418 35.65984737 37.74391678 44.96342764 44.62768555 54.37280273 C49.81894912 61.45018347 55.14621909 68.42086831 60.52148438 75.359375 C61.15505859 76.18308594 61.78863281 77.00679688 62.44140625 77.85546875 C62.99642822 78.5724292 63.5514502 79.28938965 64.12329102 80.02807617 C66.56339733 83.43686956 68.7480838 86.98913188 70.9375 90.5625 C64.21822044 91.02334813 57.50305859 91.33575954 50.77148438 91.55126953 C48.48901289 91.64116359 46.20756005 91.76355431 43.92871094 91.92041016 C25.58710878 93.15014948 25.58710878 93.15014948 19.57824707 88.88973999 C15.33118426 84.68757174 12.19330302 79.86260547 9.20343018 74.71594238 C7.65933141 72.08931432 5.87783218 69.71287779 4 67.31640625 C2.97668221 65.92108952 1.95576949 64.52400511 0.9375 63.125 C-0.23176644 61.5299447 -1.40103741 59.93489271 -2.5703125 58.33984375 C-3.73448018 56.74747273 -4.89854326 55.15502522 -6.0625 53.5625 C-8.35115378 50.43528035 -10.64271651 47.31022449 -12.9375 44.1875 C-13.50476807 43.4155127 -14.07203613 42.64352539 -14.65649414 41.84814453 C-19.8428588 34.81453182 -25.13787055 27.86535222 -30.47021484 20.94189453 C-43.0625 4.53278521 -43.0625 4.53278521 -43.0625 2.5625 C-41.6712793 2.52491577 -41.6712793 2.52491577 -40.25195312 2.48657227 C-36.77789461 2.39086638 -33.3039708 2.2916709 -29.83007812 2.19018555 C-28.33272126 2.14714137 -26.83532487 2.10544799 -25.33789062 2.06518555 C-23.17305644 2.00673502 -21.00841566 1.94326547 -18.84375 1.87890625 C-17.54501953 1.84224854 -16.24628906 1.80559082 -14.90820312 1.76782227 C-9.87481754 1.49908958 -4.96155384 0.91130581 0 0 Z " fill="#474747" transform="translate(150.0625,226.4375)"/>
<path d="M0 0 C115.5 0 115.5 0 128 5 C123.90445179 6.36518274 120.48680547 5.33546082 116.34277344 4.59448242 C104.39603093 2.64361534 92.59519055 2.52249926 80.515625 2.48828125 C78.2349148 2.47138757 75.95421365 2.45323126 73.67352295 2.43388367 C67.74231801 2.38688603 61.81114972 2.35675447 55.87982178 2.33044434 C49.79871378 2.30038186 43.71773164 2.25394155 37.63671875 2.20898438 C25.75787902 2.12352466 13.87901298 2.05592801 2 2 C2.10473099 31.58071448 2.21444525 61.16140717 2.33111694 90.742077 C2.34488653 94.23430119 2.35861362 97.72652554 2.37231445 101.21875 C2.37504276 101.91398938 2.37777106 102.60922876 2.38058204 103.325536 C2.42465772 114.58292933 2.46529116 125.8403326 2.50465261 137.09774329 C2.54511733 148.64877448 2.58935382 160.19978607 2.63687855 171.75079048 C2.66345292 178.23884426 2.68830539 184.72689445 2.70907402 191.21496964 C2.72867018 197.31994112 2.75282296 203.42487751 2.78049088 209.52981758 C2.78984551 211.77197062 2.79752648 214.01413135 2.80341911 216.25629616 C2.81170724 219.31519986 2.82599159 222.374019 2.84178162 225.43289185 C2.84324878 226.7665627 2.84324878 226.7665627 2.84474558 228.1271764 C2.85022002 228.95075386 2.85569446 229.77433132 2.8613348 230.62286568 C2.86532186 231.68114624 2.86532186 231.68114624 2.86938947 232.7608062 C3.0308117 235.52823743 3.54426381 238.26558283 4 241 C15.22 241 26.44 241 38 241 C37.98839844 235.8025 37.97679687 230.605 37.96484375 225.25 C37.95243072 217.83333584 37.94397619 210.41667161 37.9375 203 C37.93664398 202.02692146 37.93578796 201.05384293 37.93490601 200.05127716 C37.90639316 163.15707602 38.15035362 126.26741795 38.5 89.375 C38.51195782 88.11276611 38.52391563 86.85053223 38.53623581 85.55004883 C38.68386836 70.03329436 38.8384484 54.51661561 39 39 C39.33 39 39.66 39 40 39 C40 64.41 40 89.82 40 116 C43.96 116 47.92 116 52 116 C52 128.21 52 140.42 52 153 C59.31428576 152.9320582 66.62766275 152.86119606 73.94148254 152.7644577 C77.34882269 152.72015874 80.75605011 152.68065425 84.16357422 152.65356445 C88.09110202 152.61966915 92.01803915 152.56733679 95.9453125 152.51171875 C97.1417337 152.50532883 98.33815491 152.4989389 99.5708313 152.49235535 C107.02844841 152.36511512 113.80608749 151.37428589 121.04098511 149.54060364 C123.86126133 149.02534716 125.34901255 149.02709917 128 150 C115.46110237 154.75613358 102.70800359 155.30018969 89.4140625 155.1953125 C87.51853638 155.19229126 87.51853638 155.19229126 85.5847168 155.18920898 C80.93144014 155.17886278 76.27821584 155.15094175 71.625 155.125 C55.970625 155.063125 55.970625 155.063125 40 155 C40 184.04 40 213.08 40 243 C26.8 243 13.6 243 0 243 C0 162.81 0 82.62 0 0 Z " fill="#138CCB" transform="translate(34,74)"/>
<path d="M0 0 C4.8385716 1.65254063 9.6766033 3.3066494 14.51416016 4.9621582 C16.15691944 5.52410385 17.79982063 6.08563483 19.44287109 6.64672852 C21.81646348 7.45738165 24.18952662 8.26956819 26.5625 9.08203125 C27.28679199 9.32903275 28.01108398 9.57603424 28.75732422 9.83052063 C33.53862907 11.46969251 38.27419683 13.2068926 43 15 C40.48788236 17.65665417 38.36960399 18.86823764 34.9375 20.1875 C34.05964844 20.53167969 33.18179688 20.87585938 32.27734375 21.23046875 C30 22 30 22 28 22 C28 22.66 28 23.32 28 24 C28.99 24.33 29.98 24.66 31 25 C32.61328125 26.671875 32.61328125 26.671875 34.3125 28.75 C37.29895915 32.28291763 40.35818708 35.15760943 44 38 C42.60840337 41.47899158 41.36748512 42.48052501 38 44 C36.39490066 42.56354149 34.79095576 41.12579294 33.1875 39.6875 C32.29417969 38.88699219 31.40085937 38.08648437 30.48046875 37.26171875 C26.19670579 33.35573646 26.19670579 33.35573646 25 32 C25 31.34 25 30.68 25 30 C23.68 29.67 22.36 29.34 21 29 C20.87753906 29.71542969 20.75507813 30.43085938 20.62890625 31.16796875 C19.98864625 34.05112713 19.06448444 36.58592473 17.9375 39.3125 C17.57527344 40.19550781 17.21304687 41.07851563 16.83984375 41.98828125 C16.56269531 42.65214844 16.28554688 43.31601562 16 44 C14.21679554 41.32519332 13.29474583 39.30468873 12.25 36.3125 C10.54942909 31.52171254 8.79314853 26.75662159 7 22 C6.48673014 20.6316038 5.97370604 19.26311539 5.4609375 17.89453125 C4.55375 15.47358577 3.64202995 13.05456376 2.7265625 10.63671875 C2.18128906 9.17685547 2.18128906 9.17685547 1.625 7.6875 C1.30789063 6.84574219 0.99078125 6.00398438 0.6640625 5.13671875 C0 3 0 3 0 0 Z " fill="#474746" transform="translate(350,269)"/>
<path d="M0 0 C115.5 0 115.5 0 128 5 C119.40930736 7.86356421 109.93217688 3.48869615 101 2 C68 1.67 35 1.34 1 1 C1 80.53 1 160.06 1 242 C13.54 242 26.08 242 39 242 C39 212.96 39 183.92 39 154 C53.61326158 152.87590296 53.61326158 152.87590296 58.57788086 152.84228516 C59.69291489 152.83202301 60.80794891 152.82176086 61.95677185 152.81118774 C63.11443558 152.80388641 64.2720993 152.79658508 65.46484375 152.7890625 C68.0019597 152.76100522 70.539069 152.73234085 73.07617188 152.703125 C77.01000862 152.66192015 80.94371942 152.62495838 84.87768555 152.59863281 C88.71948678 152.57080237 92.56075345 152.5249564 96.40234375 152.4765625 C98.13580299 152.4716832 98.13580299 152.4716832 99.90428162 152.46670532 C107.24329351 152.35797432 113.90499646 151.34179525 121.0249176 149.5418396 C123.85308261 149.02675746 125.34282369 149.02351172 128 150 C115.46110237 154.75613358 102.70800359 155.30018969 89.4140625 155.1953125 C87.51853638 155.19229126 87.51853638 155.19229126 85.5847168 155.18920898 C80.93144014 155.17886278 76.27821584 155.15094175 71.625 155.125 C55.970625 155.063125 55.970625 155.063125 40 155 C40 184.04 40 213.08 40 243 C26.8 243 13.6 243 0 243 C0 162.81 0 82.62 0 0 Z " fill="#2D89B5" transform="translate(34,74)"/>
<path d="M0 0 C3.5707206 3.43823803 6.63142133 6.96775437 9.625 10.9375 C10.50446648 12.09691727 11.38470144 13.25575193 12.265625 14.4140625 C12.71615234 15.00735352 13.16667969 15.60064453 13.63085938 16.21191406 C15.84596302 19.10482047 18.11291917 21.95629209 20.375 24.8125 C24.99654563 30.66253679 29.49086615 36.60191403 33.94091797 42.58325195 C34.41287598 43.21706787 34.88483398 43.85088379 35.37109375 44.50390625 C35.81694824 45.10348145 36.26280273 45.70305664 36.72216797 46.32080078 C37.89165831 47.85762817 39.1171797 49.35139707 40.34765625 50.83984375 C42 53 42 53 42 55 C32.71255241 56.20798686 32.71255241 56.20798686 28.97314453 53.5703125 C27.15149089 51.47095812 25.60014392 49.31549154 24.0625 47 C23.19153687 45.78606567 23.19153687 45.78606567 22.30297852 44.54760742 C21.10256128 42.87276988 19.91596139 41.18794533 18.74316406 39.49365234 C16.08105942 35.68542589 13.25226613 32.00834496 10.4375 28.3125 C9.05143911 26.46848328 7.67227486 24.62078694 6.31079102 22.75854492 C5.42311697 21.56764975 4.50553989 20.39857059 3.56225586 19.2512207 C0.17664127 14.98198641 -0.57942257 12.16787406 -0.3125 6.5625 C-0.26738281 5.32628906 -0.22226563 4.09007812 -0.17578125 2.81640625 C-0.11777344 1.88699219 -0.05976563 0.95757812 0 0 Z " fill="#363635" transform="translate(203,261)"/>
<path d="M0 0 C3.96 0 7.92 0 12 0 C12 12.54 12 25.08 12 38 C8.04 38 4.08 38 0 38 C0 25.46 0 12.92 0 0 Z " fill="#0362A7" transform="translate(74,190)"/>
<path d="M0 0 C2.64 0 5.28 0 8 0 C6.77435738 5.93665228 5.25624589 11.67725879 3.375 17.4375 C2.84662709 19.08170088 2.31934903 20.72625386 1.79296875 22.37109375 C1.50856934 23.25909668 1.22416992 24.14709961 0.93115234 25.06201172 C-1.21843357 31.84442308 -3.28630407 38.65244384 -5.37158203 45.45483398 C-5.69884277 46.52161377 -6.02610352 47.58839355 -6.36328125 48.6875 C-6.65501221 49.64011719 -6.94674316 50.59273437 -7.24731445 51.57421875 C-7.81055732 53.38945752 -8.39897302 55.19691906 -9 57 C-11.64 57 -14.28 57 -17 57 C-13.785854 44.9623491 -10.49449064 32.9775815 -6.67822266 21.11572266 C-5.61215768 17.79012183 -4.56518843 14.45852391 -3.515625 11.12768555 C-2.3463847 7.41762266 -1.17312136 3.7088373 0 0 Z " fill="#1A8DCB" transform="translate(304,169)"/>
<path d="M0 0 C9.85875 -0.04125 19.7175 -0.0825 29.875 -0.125 C34.5153833 -0.15231201 34.5153833 -0.15231201 39.24951172 -0.18017578 C41.72623522 -0.18602195 44.20296065 -0.19111722 46.6796875 -0.1953125 C47.94562744 -0.20554443 49.21156738 -0.21577637 50.51586914 -0.22631836 C59.34699804 -0.22804353 67.87811424 0.20978665 76 4 C76 4.33 76 4.66 76 5 C68.125 4.125 68.125 4.125 67 3 C64.97585009 2.87624831 62.94742263 2.82202689 60.91967773 2.79467773 C59.60012085 2.77449585 58.28056396 2.75431396 56.92102051 2.73352051 C55.50854645 2.71674913 54.09607086 2.70010589 52.68359375 2.68359375 C51.40681763 2.66494263 50.1300415 2.6462915 48.8145752 2.6270752 C44.02229054 2.55851868 39.22988634 2.4985357 34.4375 2.4375 C23.733125 2.293125 13.02875 2.14875 2 2 C2 26.09 2 50.18 2 75 C23.78 75 45.56 75 68 75 C68 75.33 68 75.66 68 76 C64.15340746 76.90153946 60.59596165 77.12143479 56.64916992 77.11352539 C55.3707019 77.11340454 54.09223389 77.11328369 52.77502441 77.11315918 C51.42683869 77.10812467 50.07865345 77.10295815 48.73046875 77.09765625 C46.88032166 77.09614563 46.88032166 77.09614563 44.99279785 77.09460449 C40.39102243 77.08937761 35.78926027 77.07541634 31.1875 77.0625 C20.895625 77.041875 10.60375 77.02125 0 77 C0 51.59 0 26.18 0 0 Z " fill="#CCF2FA" transform="translate(74,113)"/>
<path d="M0 0 C2.375 1.8125 2.375 1.8125 4 4 C4 4.99 4 5.98 4 7 C-5.28852374 9.90266367 -14.44439097 10.31479027 -24.14624023 10.45996094 C-25.51280384 10.48676592 -26.87915771 10.52790597 -28.24487305 10.58300781 C-39.64623472 11.03551852 -39.64623472 11.03551852 -43.03759766 8.44140625 C-46 4.36510728 -46 4.36510728 -46 2 C-44.6087793 1.96241577 -44.6087793 1.96241577 -43.18945312 1.92407227 C-39.71539461 1.82836638 -36.2414708 1.7291709 -32.76757812 1.62768555 C-31.27022126 1.58464137 -29.77282487 1.54294799 -28.27539062 1.50268555 C-26.11055644 1.44423502 -23.94591566 1.38076547 -21.78125 1.31640625 C-20.48251953 1.27974854 -19.18378906 1.24309082 -17.84570312 1.20532227 C-11.93116912 0.88954503 -5.88176876 -0.66838281 0 0 Z " fill="#313334" transform="translate(153,227)"/>
<path d="M0 0 C0 2.64 0 5.28 0 8 C-5.61 10.64 -11.22 13.28 -17 16 C-17 16.66 -17 17.32 -17 18 C-8.585 21.96 -8.585 21.96 0 26 C0 28.64 0 31.28 0 34 C-19.00455581 25.738041 -19.00455581 25.738041 -27 21 C-27 18.36 -27 15.72 -27 13 C-25.96101563 12.48050781 -24.92203125 11.96101562 -23.8515625 11.42578125 C-23.1800415 11.08998047 -22.50852051 10.75417969 -21.81665039 10.40820312 C-20.35242503 9.676172 -18.88806896 8.94440225 -17.42358398 8.21289062 C-14.19468335 6.5996939 -10.96751083 4.9835799 -7.74609375 3.35546875 C-6.41771484 2.68451172 -6.41771484 2.68451172 -5.0625 2 C-3.90427734 1.4121875 -3.90427734 1.4121875 -2.72265625 0.8125 C-1 0 -1 0 0 0 Z " fill="#0A89D1" transform="translate(284,180)"/>
<path d="M0 0 C5.53652051 1.65823773 10.61560515 4.07223926 15.8125 6.5625 C16.68326172 6.97435547 17.55402344 7.38621094 18.45117188 7.81054688 C24.86497861 10.86497861 24.86497861 10.86497861 26 12 C26.07179964 13.51928038 26.08392007 15.04167482 26.0625 16.5625 C26.05347656 17.38878906 26.04445313 18.21507812 26.03515625 19.06640625 C26.02355469 19.70449219 26.01195312 20.34257812 26 21 C22.23054828 22.81538365 18.45920862 24.62681062 14.6875 26.4375 C13.0797168 27.2119043 13.0797168 27.2119043 11.43945312 28.00195312 C10.41142578 28.49501953 9.38339844 28.98808594 8.32421875 29.49609375 C7.37635498 29.95169678 6.42849121 30.4072998 5.4519043 30.87670898 C3 32 3 32 0 33 C0 30.36 0 27.72 0 25 C0.50974365 24.76289307 1.0194873 24.52578613 1.54467773 24.28149414 C3.84334017 23.21074407 6.14043294 22.13666805 8.4375 21.0625 C9.23994141 20.68931641 10.04238281 20.31613281 10.86914062 19.93164062 C12.01479492 19.39506836 12.01479492 19.39506836 13.18359375 18.84765625 C13.89056396 18.51773682 14.59753418 18.18781738 15.32592773 17.84790039 C16.9891159 17.11465443 16.9891159 17.11465443 18 16 C17.23538452 15.6443396 17.23538452 15.6443396 16.45532227 15.28149414 C14.15665983 14.21074407 11.85956706 13.13666805 9.5625 12.0625 C8.76005859 11.68931641 7.95761719 11.31613281 7.13085938 10.93164062 C6.36708984 10.57392578 5.60332031 10.21621094 4.81640625 9.84765625 C4.10943604 9.51773682 3.40246582 9.18781738 2.67407227 8.84790039 C1 8 1 8 0 7 C-0.04092937 4.66702567 -0.04241723 2.33294775 0 0 Z " fill="#1088CB" transform="translate(316,181)"/>
<path d="M0 0 C2.97 0.33 5.94 0.66 9 1 C11.79059131 7.69741915 14.30852467 14.48155713 16.75 21.3125 C17.06783447 22.18422852 17.38566895 23.05595703 17.71313477 23.95410156 C18.00889404 24.79038086 18.30465332 25.62666016 18.609375 26.48828125 C19.0110791 27.61036987 19.0110791 27.61036987 19.42089844 28.75512695 C20.07784078 31.30174789 20.25994805 33.38159921 20 36 C17.13896577 38.24243223 15.65923696 39 12 39 C10.28526381 33.92989904 8.57642653 28.85786321 6.87304688 23.78393555 C6.29263794 22.05780326 5.71061526 20.33221272 5.12695312 18.60717773 C4.28872539 16.12884623 3.45630328 13.64863015 2.625 11.16796875 C2.23127197 10.01001045 2.23127197 10.01001045 1.82958984 8.82865906 C0.8105184 5.77240588 0 3.24447245 0 0 Z " fill="#323232" transform="translate(332,261)"/>
<path d="M0 0 C17.325 -0.061875 34.65 -0.12375 52.5 -0.1875 C57.94048828 -0.21481201 63.38097656 -0.24212402 68.98632812 -0.27026367 C75.70605469 -0.28381348 75.70605469 -0.28381348 78.86657715 -0.28633118 C81.04172617 -0.29089333 83.21686832 -0.30135025 85.39196777 -0.31672668 C115.25588097 -0.51701769 115.25588097 -0.51701769 128 5 C124.73583976 6.08805341 123.59823629 5.90917415 120.30847168 5.24407959 C119.36046944 5.06321934 118.41246719 4.88235909 117.43573761 4.69601822 C115.89650257 4.40127924 115.89650257 4.40127924 114.32617188 4.10058594 C101.74655745 1.85825507 89.53090862 1.39442814 76.78125 1.390625 C74.81997382 1.3765664 72.85870932 1.36077359 70.89746094 1.34326172 C63.76509511 1.2913514 56.63251919 1.27251601 49.5 1.25 C25.4925 1.12625 25.4925 1.12625 1 1 C1 52.48 1 103.96 1 157 C0.67 157 0.34 157 0 157 C0 105.19 0 53.38 0 0 Z " fill="#238BBA" transform="translate(34,74)"/>
<path d="M0 0 C12.99939235 12.30050029 17.82728644 31.35123388 18.35375977 48.72485352 C18.539369 68.60637561 13.36844237 87.14832088 1 103 C0.67 103 0.34 103 0 103 C0 101.02 0 99.04 0 97 C2.475 96.01 2.475 96.01 5 95 C5 94.01 5 93.02 5 92 C5.66 92 6.32 92 7 92 C7.38091797 90.28490234 7.38091797 90.28490234 7.76953125 88.53515625 C8.11650391 87.04411159 8.46419753 85.55323458 8.8125 84.0625 C8.97814453 83.30775391 9.14378906 82.55300781 9.31445312 81.77539062 C9.77816623 79.82429587 10.3807544 77.90744213 11 76 C12.485 75.505 12.485 75.505 14 75 C16.52584006 49.06037462 16.52584006 49.06037462 11 24 C10.7525 23.13375 10.505 22.2675 10.25 21.375 C8.6726486 17.11615122 6.49102557 13.32878162 4.2421875 9.390625 C3 7 3 7 3 5 C2.01 4.67 1.02 4.34 0 4 C0 2.68 0 1.36 0 0 Z " fill="#248DC2" transform="translate(192,100)"/>
<path d="M0 0 C13.67470286 -0.06980874 27.34936265 -0.12296719 41.02420807 -0.15543652 C47.37541543 -0.17102775 53.7265 -0.19214543 60.07763672 -0.22631836 C66.21793305 -0.25914644 72.35811199 -0.27690209 78.49848938 -0.28463173 C80.82979681 -0.29013342 83.16109852 -0.30087563 85.49235535 -0.31719017 C115.25589141 -0.51701317 115.25589141 -0.51701317 128 5 C124.73708011 6.08763996 123.6038512 5.90986387 120.31616211 5.24407959 C119.36931046 5.06321934 118.4224588 4.88235909 117.44691467 4.69601822 C116.42158127 4.49952557 115.39624786 4.30303291 114.33984375 4.10058594 C101.68463536 1.84402184 89.38824006 1.39567812 76.5625 1.390625 C74.33234491 1.37558903 72.10220072 1.35885092 69.87207031 1.34051514 C64.09213661 1.29743635 58.31235282 1.27697698 52.5322876 1.26177979 C46.59825993 1.24199046 40.6643893 1.20004767 34.73046875 1.16015625 C23.15369501 1.08550107 11.57695747 1.03482168 0 1 C0 0.67 0 0.34 0 0 Z " fill="#3995C2" transform="translate(34,74)"/>
<path d="M0 0 C1.65 0.66 3.3 1.32 5 2 C5 4.97 5 7.94 5 11 C1.23054828 12.81538365 -2.54079138 14.62681062 -6.3125 16.4375 C-7.9202832 17.2119043 -7.9202832 17.2119043 -9.56054688 18.00195312 C-10.58857422 18.49501953 -11.61660156 18.98808594 -12.67578125 19.49609375 C-13.62364502 19.95169678 -14.57150879 20.4072998 -15.5480957 20.87670898 C-18 22 -18 22 -21 23 C-21 20.36 -21 17.72 -21 15 C-15.39 12.36 -9.78 9.72 -4 7 C-3.67 7.66 -3.34 8.32 -3 9 C-3.99 9.99 -4.98 10.98 -6 12 C-4.02 12 -2.04 12 0 12 C0 11.34 0 10.68 0 10 C1.32 10 2.64 10 4 10 C4 7.69 4 5.38 4 3 C2.68 2.67 1.36 2.34 0 2 C0 1.34 0 0.68 0 0 Z " fill="#218BC2" transform="translate(337,191)"/>
<path d="M0 0 C0 0.66 0 1.32 0 2 C-6.625 5 -6.625 5 -10 5 C-9.67 7.31 -9.34 9.62 -9 12 C-8.195625 12.12375 -7.39125 12.2475 -6.5625 12.375 C-5.716875 12.58125 -4.87125 12.7875 -4 13 C-3.67 13.66 -3.34 14.32 -3 15 C-0.37418862 16.57548683 0.87099787 17 4 17 C4.33 16.01 4.66 15.02 5 14 C8.48670834 15.1094072 11.77484237 16.26337666 15 18 C15 20.64 15 23.28 15 26 C-4.00455581 17.738041 -4.00455581 17.738041 -12 13 C-12 10.36 -12 7.72 -12 5 C-10.37750059 4.16180842 -8.75191503 3.3295884 -7.125 2.5 C-6.22007812 2.0359375 -5.31515625 1.571875 -4.3828125 1.09375 C-2 0 -2 0 0 0 Z " fill="#2086C0" transform="translate(269,188)"/>
<path d="M0 0 C0.99 0.66 1.98 1.32 3 2 C2.731875 2.495 2.46375 2.99 2.1875 3.5 C-0.43975317 9.03105931 -2.46894391 13.74741452 -2 20 C-1.34 20 -0.68 20 0 20 C0.66 19.01 1.32 18.02 2 17 C1.45144652 21.571279 0.58255197 25.67435795 -1 30 C-3.64 30 -6.28 30 -9 30 C-8.06899778 26.49823912 -7.12901101 22.99894871 -6.1875 19.5 C-5.79594727 18.02660156 -5.79594727 18.02660156 -5.39648438 16.5234375 C-3.87220372 10.87795359 -2.15527364 5.43672629 0 0 Z " fill="#2288BD" transform="translate(296,196)"/>
<path d="M0 0 C8.56297657 -0.06980773 17.12583231 -0.1229663 25.68902397 -0.15543652 C29.666158 -0.17102819 33.64309596 -0.19214604 37.62011719 -0.22631836 C41.4651085 -0.25914583 45.30991236 -0.27690176 49.15503311 -0.28463173 C50.61490958 -0.29013361 52.07477692 -0.30087635 53.5345726 -0.31719017 C65.02799235 -0.44041272 74.17772587 0.80769674 84 7 C84 7.66 84 8.32 84 9 C85.32 9.66 86.64 10.32 88 11 C87.67 11.66 87.34 12.32 87 13 C86.55011719 12.61328125 86.10023438 12.2265625 85.63671875 11.828125 C73.9652024 2.37864082 61.38979616 1.86919816 46.97265625 1.68359375 C45.61501989 1.66299093 44.25738947 1.64199366 42.89976501 1.62062073 C39.34724774 1.56574335 35.79467592 1.51618448 32.24206543 1.46777344 C28.6085939 1.41730573 24.97520041 1.36175232 21.34179688 1.30664062 C14.22793243 1.19947983 7.11399781 1.09794361 0 1 C0 0.67 0 0.34 0 0 Z " fill="#228ABF" transform="translate(74,112)"/>
<path d="M0 0 C11.75090539 11.11913628 17.34840538 28.59198397 18.12011719 44.47167969 C18.24106609 49.65265476 18.16184901 54.82083159 18 60 C17.67 60 17.34 60 17 60 C16.96261719 59.1028125 16.92523438 58.205625 16.88671875 57.28125 C16.2984198 46.11510527 15.46687747 34.36756746 11 24 C10.7525 23.13375 10.505 22.2675 10.25 21.375 C8.6726486 17.11615122 6.49102557 13.32878162 4.2421875 9.390625 C3 7 3 7 3 5 C2.01 4.67 1.02 4.34 0 4 C0 2.68 0 1.36 0 0 Z " fill="#3796C1" transform="translate(192,100)"/>
<path d="M0 0 C0 2.64 0 5.28 0 8 C-5.61 10.64 -11.22 13.28 -17 16 C-17 16.66 -17 17.32 -17 18 C-14.69 18.99 -12.38 19.98 -10 21 C-10 21.33 -10 21.66 -10 22 C-14.2225435 22.3619323 -16.66954606 21.66436316 -20 19 C-20 17.68 -20 16.36 -20 15 C-19.34 15 -18.68 15 -18 15 C-18 14.34 -18 13.68 -18 13 C-17.26394531 12.73445312 -16.52789062 12.46890625 -15.76953125 12.1953125 C-14.79371094 11.84210938 -13.81789063 11.48890625 -12.8125 11.125 C-11.84957031 10.77695313 -10.88664062 10.42890625 -9.89453125 10.0703125 C-7.24365141 9.09009512 -4.6186902 8.06279566 -2 7 C-2.33 6.01 -2.66 5.02 -3 4 C-5.01508358 3.26676204 -5.01508358 3.26676204 -7 3 C-1.125 0 -1.125 0 0 0 Z " fill="#3891BD" transform="translate(284,180)"/>
<path d="M0 0 C-0.33 0.99 -0.66 1.98 -1 3 C-20.47 3 -39.94 3 -60 3 C-60 2.67 -60 2.34 -60 2 C-59.37217117 1.98969254 -58.74434235 1.97938507 -58.0974884 1.96876526 C-51.55992556 1.86054055 -45.02249609 1.74595561 -38.48510742 1.62768555 C-36.0456827 1.58438791 -33.60622868 1.54270917 -31.16674805 1.50268555 C-27.65925266 1.44485792 -24.15190403 1.38119915 -20.64453125 1.31640625 C-19.00989677 1.29133751 -19.00989677 1.29133751 -17.34223938 1.26576233 C-15.81121834 1.2358445 -15.81121834 1.2358445 -14.24926758 1.20532227 C-13.35436111 1.18977798 -12.45945465 1.1742337 -11.53742981 1.15821838 C-7.58463019 0.91174632 -3.99439892 0 0 0 Z " fill="#268BBB" transform="translate(146,188)"/>
<path d="M0 0 C4.84286815 1.49359485 9.31350896 3.45033567 13.875 5.625 C14.56335938 5.94984375 15.25171875 6.2746875 15.9609375 6.609375 C17.64205219 7.40323472 19.32122921 8.20119558 21 9 C17.06204091 10.22419163 14.83887763 9.48320272 11 8 C11 7.34 11 6.68 11 6 C10.4225 5.855625 9.845 5.71125 9.25 5.5625 C7.16666667 5.04166667 5.08333333 4.52083333 3 4 C4.25541557 6.51083114 5.50063488 6.87125446 8 8 C8 8.66 8 9.32 8 10 C1.125 8.125 1.125 8.125 0 7 C-0.04092937 4.66702567 -0.04241723 2.33294775 0 0 Z " fill="#2989BD" transform="translate(316,181)"/>
<path d="M0 0 C0.66 0.33 1.32 0.66 2 1 C0.66602244 6.45829352 -0.78151083 11.86207321 -2.375 17.25 C-2.59051514 17.9814624 -2.80603027 18.7129248 -3.02807617 19.46655273 C-4.87776602 25.69232148 -6.88235453 31.86001117 -9 38 C-9.33 38 -9.66 38 -10 38 C-9.4811139 31.60884199 -8.28852389 26.14324383 -6.125 20.125 C-5.58102074 18.55809261 -5.03934764 16.99038267 -4.5 15.421875 C-4.24089844 14.66970703 -3.98179687 13.91753906 -3.71484375 13.14257812 C-2.27225463 8.81875228 -1.10966593 4.4191959 0 0 Z " fill="#CFF2F8" transform="translate(300,176)"/>
<path d="M0 0 C1.11446301 3.80039903 0.79584021 5.40831958 -1 9 C-4.472 14.824 -4.472 14.824 -8 16 C-8.33 16.66 -8.66 17.32 -9 18 C-13.57422734 21.04948489 -16.35966195 22.55027688 -22 22 C-19.66161642 20.44107761 -17.7801505 19.45790441 -15.25 18.375 C-7.50744163 14.5321861 -3.41956615 7.65982818 0 0 Z " fill="#2790C5" transform="translate(168,166)"/>
<path d="M0 0 C0 0.66 0 1.32 0 2 C-2.73106511 2.91035504 -4.29893239 3.12215713 -7.10424805 3.11352539 C-8.3351844 3.11341209 -8.3351844 3.11341209 -9.59098816 3.11329651 C-10.9129998 3.10555458 -10.9129998 3.10555458 -12.26171875 3.09765625 C-13.16751175 3.0962413 -14.07330475 3.09482635 -15.00654602 3.09336853 C-17.90023091 3.08777001 -20.79383849 3.07521781 -23.6875 3.0625 C-25.64908742 3.05748481 -27.61067606 3.05292193 -29.57226562 3.04882812 C-34.38154021 3.03780107 -39.190757 3.02053747 -44 3 C-44 2.67 -44 2.34 -44 2 C-42.6087793 1.96241577 -42.6087793 1.96241577 -41.18945312 1.92407227 C-37.71539461 1.82836638 -34.2414708 1.7291709 -30.76757812 1.62768555 C-29.27022126 1.58464137 -27.77282487 1.54294799 -26.27539062 1.50268555 C-24.11055644 1.44423502 -21.94591566 1.38076547 -19.78125 1.31640625 C-18.48251953 1.27974854 -17.18378906 1.24309082 -15.84570312 1.20532227 C-13.10138419 1.05880295 -10.47881728 0.83624432 -7.76367188 0.48022461 C-4 0 -4 0 0 0 Z " fill="#1C394A" transform="translate(151,227)"/>
<path d="M0 0 C0.33 1.32 0.66 2.64 1 4 C-0.45537568 4.83848804 -1.91440373 5.67063934 -3.375 6.5 C-4.59316406 7.19609375 -4.59316406 7.19609375 -5.8359375 7.90625 C-8 9 -8 9 -10 9 C-9.67 8.01 -9.34 7.02 -9 6 C-9.99 5.34 -10.98 4.68 -12 4 C-7.9728176 1.79463821 -4.56454251 0.54339792 0 0 Z " fill="#158CCE" transform="translate(281,183)"/>
<path d="M0 0 C15.18 0 30.36 0 46 0 C46 0.33 46 0.66 46 1 C44.71311279 1.01458252 43.42622559 1.02916504 42.1003418 1.04418945 C37.3310145 1.10211148 32.56216238 1.17934463 27.79321289 1.26245117 C25.7281871 1.29572924 23.66306973 1.32375214 21.59790039 1.34643555 C18.63127568 1.37992855 15.66549252 1.43224145 12.69921875 1.48828125 C11.31158577 1.49786613 11.31158577 1.49786613 9.8959198 1.50764465 C8.60492119 1.53733589 8.60492119 1.53733589 7.2878418 1.56762695 C6.53061325 1.57873001 5.7733847 1.58983307 4.99320984 1.60127258 C2.50982648 2.09805572 1.59914039 3.08808636 0 5 C0 3.35 0 1.7 0 0 Z " fill="#0D8DCD" transform="translate(86,191)"/>
<path d="M0 0 C8.60732421 -0.47428113 16.72058437 0.54433659 25 3 C25.66 3.66 26.32 4.32 27 5 C23.24847269 4.55364518 19.49915301 4.09084458 15.75 3.625 C14.68652344 3.49867187 13.62304688 3.37234375 12.52734375 3.2421875 C11.50253906 3.11328125 10.47773438 2.984375 9.421875 2.8515625 C8.47924805 2.73635254 7.53662109 2.62114258 6.56542969 2.50244141 C4.05471609 2.01071619 2.21183884 1.26065712 0 0 Z " fill="#2890C3" transform="translate(135,75)"/>
<path d="M0 0 C0.66 0.33 1.32 0.66 2 1 C-7.57230143 10.95519348 -7.57230143 10.95519348 -13 14 C-13.66 14 -14.32 14 -15 14 C-15 13.34 -15 12.68 -15 12 C-13.00669158 10.65668346 -11.00615134 9.32405988 -9 8 C-8.34 7.01 -7.68 6.02 -7 5 C-5.35178756 3.96986723 -3.68496298 2.96885372 -2 2 C-1.34 1.34 -0.68 0.68 0 0 Z " fill="#2C8EBF" transform="translate(190,203)"/>
<path d="M0 0 C0 0.66 0 1.32 0 2 C-6.625 5 -6.625 5 -10 5 C-9.67 7.97 -9.34 10.94 -9 14 C-9.99 13.67 -10.98 13.34 -12 13 C-12 10.36 -12 7.72 -12 5 C-10.37750059 4.16180842 -8.75191503 3.3295884 -7.125 2.5 C-6.22007812 2.0359375 -5.31515625 1.571875 -4.3828125 1.09375 C-2 0 -2 0 0 0 Z " fill="#3F96C1" transform="translate(269,188)"/>
<path d="M0 0 C6.59229145 -0.7013076 10.49376557 1.50397814 16 5 C16 5.66 16 6.32 16 7 C17.32 7.66 18.64 8.32 20 9 C19.67 9.66 19.34 10.32 19 11 C18.55011719 10.61328125 18.10023438 10.2265625 17.63671875 9.828125 C12.17156872 5.4034344 6.68246843 3.08827138 0 1 C0 0.67 0 0.34 0 0 Z " fill="#3398C5" transform="translate(142,114)"/>
<path d="M0 0 C0 0.66 0 1.32 0 2 C-0.639375 2.474375 -1.27875 2.94875 -1.9375 3.4375 C-4.28372963 4.9091365 -4.28372963 4.9091365 -5 8 C-7.475 7.01 -7.475 7.01 -10 6 C-9.67 5.01 -9.34 4.02 -9 3 C-2.88888889 0 -2.88888889 0 0 0 Z " fill="#D3F4F9" transform="translate(276,192)"/>
<path d="M0 0 C0.99 0.66 1.98 1.32 3 2 C2.71382813 2.55171875 2.42765625 3.1034375 2.1328125 3.671875 C0.92260849 6.15905289 -0.1095306 8.67747753 -1.125 11.25 C-1.47820312 12.14203125 -1.83140625 13.0340625 -2.1953125 13.953125 C-2.46085937 14.62859375 -2.72640625 15.3040625 -3 16 C-4.49828872 12.11764181 -3.43110582 9.56550712 -2.0625 5.75 C-1.68222656 4.67234375 -1.30195313 3.5946875 -0.91015625 2.484375 C-0.45962891 1.25460938 -0.45962891 1.25460938 0 0 Z " fill="#2A8EC0" transform="translate(296,196)"/>
<path d="M0 0 C1.32 0 2.64 0 4 0 C4 0.66 4 1.32 4 2 C3.01 2.33 2.02 2.66 1 3 C1 3.66 1 4.32 1 5 C4.465 6.485 4.465 6.485 8 8 C8 8.33 8 8.66 8 9 C3.7774565 9.3619323 1.33045394 8.66436316 -2 6 C-2 4.68 -2 3.36 -2 2 C-1.34 2 -0.68 2 0 2 C0 1.34 0 0.68 0 0 Z " fill="#278EC2" transform="translate(266,193)"/>
<path d="M0 0 C2.475 0.99 2.475 0.99 5 2 C2.84733158 4.15266842 1.15226256 4.93474462 -1.625 6.125 C-2.44226563 6.47820312 -3.25953125 6.83140625 -4.1015625 7.1953125 C-4.72804688 7.46085938 -5.35453125 7.72640625 -6 8 C-5.67 6.68 -5.34 5.36 -5 4 C-4.0409375 3.8453125 -4.0409375 3.8453125 -3.0625 3.6875 C-2.381875 3.460625 -1.70125 3.23375 -1 3 C-0.67 2.01 -0.34 1.02 0 0 Z " fill="#CDF4F8" transform="translate(330,195)"/>
<path d="M0 0 C0 3 0 3 -1 5 C-5.57422734 8.04948489 -8.35966195 9.55027688 -14 9 C-11.05894634 7.03929756 -8.12787352 5.59012265 -4.9375 4.09765625 C-2.92482472 2.95741078 -1.55199757 1.70234733 0 0 Z " fill="#3896C2" transform="translate(160,179)"/>
<path d="M0 0 C1.32 0.33 2.64 0.66 4 1 C2.39967863 1.84069415 0.79458829 2.67231505 -0.8125 3.5 C-2.15248047 4.19609375 -2.15248047 4.19609375 -3.51953125 4.90625 C-6 6 -6 6 -9 6 C-9 5.34 -9 4.68 -9 4 C-5.62902617 2.50178941 -3.79557881 2 0 2 C0 1.34 0 0.68 0 0 Z " fill="#298DC1" transform="translate(171,217)"/>
<path d="M0 0 C0 2.31 0 4.62 0 7 C-1.65 7 -3.3 7 -5 7 C-4.6875 4.625 -4.6875 4.625 -4 2 C-1 0 -1 0 0 0 Z " fill="#0B87CE" transform="translate(294,218)"/>
<path d="M0 0 C0.66 0 1.32 0 2 0 C4.10428384 5.12919186 4.21755666 9.5610835 4 15 C3.67 15 3.34 15 3 15 C2 10 1 5 0 0 Z " fill="#CEF1F7" transform="translate(205,121)"/>
<path d="M0 0 C1.65 0 3.3 0 5 0 C5.33 0.66 5.66 1.32 6 2 C7.64142963 3.0409066 9.30712215 4.04504326 11 5 C10.01 5.495 10.01 5.495 9 6 C6.8359375 5.22265625 6.8359375 5.22265625 4.375 4.0625 C3.55773437 3.68222656 2.74046875 3.30195313 1.8984375 2.91015625 C1.27195312 2.60980469 0.64546875 2.30945313 0 2 C0 1.34 0 0.68 0 0 Z " fill="#2E8EBF" transform="translate(260,201)"/>
<path d="M0 0 C4.95 0 9.9 0 15 0 C15 0.33 15 0.66 15 1 C13.75283203 1.05607422 13.75283203 1.05607422 12.48046875 1.11328125 C11.39378906 1.17902344 10.30710937 1.24476563 9.1875 1.3125 C7.56908203 1.39951172 7.56908203 1.39951172 5.91796875 1.48828125 C2.82502483 2.03068507 1.86977097 2.55289624 0 5 C0 3.35 0 1.7 0 0 Z " fill="#0A84C7" transform="translate(86,191)"/>
<path d="M0 0 C0.99 0.33 1.98 0.66 3 1 C2.67 2.32 2.34 3.64 2 5 C2.99 5.33 3.98 5.66 5 6 C3.35 6.66 1.7 7.32 0 8 C0 5.36 0 2.72 0 0 Z " fill="#398BB2" transform="translate(316,206)"/>
<path d="M0 0 C3.91211733 1.15585285 6.8745041 2.35534962 10 5 C5.75776898 5.3636198 3.41831915 4.5393228 0 2 C0 1.34 0 0.68 0 0 Z " fill="#D0F2F7" transform="translate(273,209)"/>
</svg>
